<?xml version="1.0" encoding="UTF-8" standalone="no"?>
<svg xmlns="http://www.w3.org/2000/svg" version="1.1" xmlns:xlink="http://www.w3.org/1999/xlink" xmlns:svgjs="http://svgjs.dev/svgjs" width="1000" height="1000" viewBox="0 0 1000 1000"><rect width="1000" height="1000" fill="#151515"></rect><g transform="matrix(0.7,0,0,0.7,149.57575757575756,282.1265587044535)"><svg viewBox="0 0 396 247" data-background-color="#151515" preserveAspectRatio="xMidYMid meet" height="623" width="1000" xmlns="http://www.w3.org/2000/svg" xmlns:xlink="http://www.w3.org/1999/xlink"><g id="tight-bounds" transform="matrix(1,0,0,1,0.2400000000000091,-0.09999999999999432)"><svg viewBox="0 0 395.52 247.2" height="247.2" width="395.52"><g><svg></svg></g><g><svg viewBox="0 0 395.52 247.2" height="247.2" width="395.52"><mask id="55e7e671-49c1-4e93-bc02-241a60e36b9d"><rect width="640" height="400" fill="white"></rect><g transform="matrix(1,0,0,1,123.55370786516853,37.08)"><svg viewBox="0 0 148.41258426966291 173.04" height="173.04" width="148.41258426966291"><g><svg viewBox="0 0 148.41258426966291 173.04" height="173.04" width="148.41258426966291"><g><svg viewBox="0 0 148.41258426966291 173.04" height="173.04" width="148.41258426966291"><g><svg viewBox="0 0 148.41258426966291 173.04" height="173.04" width="148.41258426966291"><g id="SvgjsG1776"><svg viewBox="0 0 148.41258426966291 173.04" height="173.04" width="148.41258426966291" id="SvgjsSvg1775"><g><svg viewBox="0 0 148.41258426966291 173.04" height="173.04" width="148.41258426966291"><g transform="matrix(1,0,0,1,0,0)"><svg width="148.41258426966291" viewBox="-2.850000023841858 -37.04999923706055 35.35000038146973 41.04999923706055" height="173.04" data-palette-color="#60286c"><path d="M13.7 0L1.15 0 1.15-1.05 1.95-1.3Q3-1.7 3.38-2.35 3.75-3 3.75-4.1L3.75-4.1Q3.8-6.95 3.8-9.83 3.8-12.7 3.8-15.6L3.8-15.6 3.8-17.4Q3.8-20.3 3.78-23.18 3.75-26.05 3.75-28.95L3.75-28.95Q3.75-30.15 3.4-30.78 3.05-31.4 1.95-31.75L1.95-31.75 1.15-32 1.15-33.05 15.25-33.05Q21.25-33.05 23.95-30.83 26.65-28.6 26.65-25.2L26.65-25.2Q26.65-22.6 24.75-20.53 22.85-18.45 18.1-17.55L18.1-17.55Q23.6-16.95 26.05-14.7 28.5-12.45 28.5-9.2L28.5-9.2Q28.5-7.6 27.8-5.98 27.1-4.35 25.43-3 23.75-1.65 20.9-0.83 18.05 0 13.7 0L13.7 0ZM10.9-31.6L10.9-17.9 13.25-17.9Q16.65-17.9 18.18-19.43 19.7-20.95 19.7-24.65L19.7-24.65Q19.7-28.5 18.3-30.05 16.9-31.6 13.9-31.6L13.9-31.6 10.9-31.6ZM10.9-16.45L10.9-1.45 13.65-1.45Q17.4-1.45 19.25-3.3 21.1-5.15 21.1-9.25L21.1-9.25Q21.1-13.2 19.33-14.83 17.55-16.45 13.5-16.45L13.5-16.45 10.9-16.45Z" opacity="1" transform="matrix(1,0,0,1,0,0)" fill="black" class="wordmark-text-0" id="SvgjsPath1774" stroke-width="7" stroke="black" stroke-linejoin="round"></path></svg></g></svg></g></svg></g></svg></g><g></g></svg></g></svg></g></svg></g></mask><g transform="matrix(1,0,0,1,123.55370786516853,37.08)"><svg viewBox="0 0 148.41258426966291 173.04" height="173.04" width="148.41258426966291"><g><svg viewBox="0 0 148.41258426966291 173.04" height="173.04" width="148.41258426966291"><g><svg viewBox="0 0 148.41258426966291 173.04" height="173.04" width="148.41258426966291"><g><svg viewBox="0 0 148.41258426966291 173.04" height="173.04" width="148.41258426966291"><g id="textblocktransform"><svg viewBox="0 0 148.41258426966291 173.04" height="173.04" width="148.41258426966291" id="textblock"><g><svg viewBox="0 0 148.41258426966291 173.04" height="173.04" width="148.41258426966291"><g transform="matrix(1,0,0,1,0,0)"><svg width="148.41258426966291" viewBox="-2.850000023841858 -37.04999923706055 35.35000038146973 41.04999923706055" height="173.04" data-palette-color="#60286c"><path d="M13.7 0L1.15 0 1.15-1.05 1.95-1.3Q3-1.7 3.38-2.35 3.75-3 3.75-4.1L3.75-4.1Q3.8-6.95 3.8-9.83 3.8-12.7 3.8-15.6L3.8-15.6 3.8-17.4Q3.8-20.3 3.78-23.18 3.75-26.05 3.75-28.95L3.75-28.95Q3.75-30.15 3.4-30.78 3.05-31.4 1.95-31.75L1.95-31.75 1.15-32 1.15-33.05 15.25-33.05Q21.25-33.05 23.95-30.83 26.65-28.6 26.65-25.2L26.65-25.2Q26.65-22.6 24.75-20.53 22.85-18.45 18.1-17.55L18.1-17.55Q23.6-16.95 26.05-14.7 28.5-12.45 28.5-9.2L28.5-9.2Q28.5-7.6 27.8-5.98 27.1-4.35 25.43-3 23.75-1.65 20.9-0.83 18.05 0 13.7 0L13.7 0ZM10.9-31.6L10.9-17.9 13.25-17.9Q16.65-17.9 18.18-19.43 19.7-20.95 19.7-24.65L19.7-24.65Q19.7-28.5 18.3-30.05 16.9-31.6 13.9-31.6L13.9-31.6 10.9-31.6ZM10.9-16.45L10.9-1.45 13.65-1.45Q17.4-1.45 19.25-3.3 21.1-5.15 21.1-9.25L21.1-9.25Q21.1-13.2 19.33-14.83 17.55-16.45 13.5-16.45L13.5-16.45 10.9-16.45Z" opacity="1" transform="matrix(1,0,0,1,0,0)" fill="#60286c" class="wordmark-text-0" data-fill-palette-color="primary" id="text-0"></path></svg></g></svg></g></svg></g></svg></g><g></g></svg></g></svg></g></svg></g><g mask="url(#55e7e671-49c1-4e93-bc02-241a60e36b9d)"><g transform="matrix(3.1844155844155844, 0, 0, 3.1844155844155844, 58.60104867910408, 1)"><svg xmlns="http://www.w3.org/2000/svg" xmlns:xlink="http://www.w3.org/1999/xlink" version="1.1" x="0" y="0" viewBox="6.300000190734863 11.5 87.39999389648438 77" style="enable-background:new 0 0 100 100;" xml:space="preserve" height="77" width="87.39999389648438" class="icon-none" data-fill-palette-color="accent" id="none"><path d="M72.3 12.3L72.3 12.3 72.3 12.3l-0.4-0.8H28.2L6.3 50l21.8 38.5h43.7L93.7 50 72.3 12.3zM33.3 25.3L9.9 47.7l18.6-32.8L33.3 25.3zM70.7 14.8l6.4 35.7L36.9 25.8 70.7 14.8zM35.5 27.3l41 25.2-41 23.3V27.3zM77 54.5l-7.2 30.8-32.6-8.1L77 54.5zM33.5 75L9.9 50.5l23.6-22.7V75zM33.2 77.6l-4.6 7.7L11.5 55.1 33.2 77.6zM35 78.6l31.4 7.9H30.2L35 78.6zM79.3 53.3l11.6-2.5L72.1 84 79.3 53.3zM90.7 48.9l-11.4 2.5-5.9-33.1L90.7 48.9zM35 24.3l-5-10.8h38.2L35 24.3z" fill="#515555" data-fill-palette-color="accent"></path></svg></g></g></svg></g><defs></defs></svg><rect width="395.52" height="247.2" fill="none" stroke="none" visibility="hidden"></rect></g></svg></g></svg>